
<?xml version="1.0"?>
<svg xmlns="http://www.w3.org/2000/svg" viewBox="0 0 512 512" width="512" height="512"><g id="Fill_out_line" data-name="Fill out line"><path d="M333.25,208a109.25069,109.25069,0,0,0-71.37012,26.54,56.10923,56.10923,0,0,0,9.72022,13.06006l42.04,42.04a68.24118,68.24118,0,0,1,41.77978-22.7002L376,264a109.26908,109.26908,0,0,0-32,77.25V352H280a77.25758,77.25758,0,0,0-22.62988-54.62988L240,280H144.8501a60,60,0,0,1-42.42017-102.42993L160,120l-38.35986,76.72a29.90469,29.90469,0,0,0,26.75,43.28h56.91992a71.18187,71.18187,0,0,1-5.68994-16,71.90728,71.90728,0,0,1,19.28979-66.91016A71.99037,71.99037,0,0,0,240,106.17993V88h48v40.80005a56.07348,56.07348,0,0,1-16.3999,39.59985A56.02623,56.02623,0,0,0,262.24023,180.79c-.01025.01-.01025.03-.0205.0498A81.86729,81.86729,0,0,1,289.93994,176H392l-13.08984,13.08984A64.56321,64.56321,0,0,1,333.25,208Z" style="fill:#bc8d5d"/><path d="M368,80a24.00619,24.00619,0,0,1-24,24H312a23.88522,23.88522,0,0,1-10.41016-2.37012A40.0221,40.0221,0,0,1,288,104H240a40,40,0,0,1,0-80h48a40.01649,40.01649,0,0,1,39.2002,32H344a24.00243,24.00243,0,0,1,24,24Z" style="fill:#7ab555"/><rect x="272" y="96" width="128" height="48" rx="23.99998" ry="23.99998" style="fill:#699b49"/><path d="M488,180a19.99459,19.99459,0,0,1-20,20H428a19.80165,19.80165,0,0,1-5.14014-.68994A23.99677,23.99677,0,0,1,400,216H368a23.99281,23.99281,0,0,1-17.3999-40.52A28.00308,28.00308,0,0,1,356,120h72a28.00272,28.00272,0,0,1,25.2998,40H468a20.00682,20.00682,0,0,1,20,20Z" style="fill:#7ab555"/><rect x="88" y="64" width="152" height="56" rx="27.99997" ry="27.99997" style="fill:#699b49"/><path d="M184,120H160a31.99893,31.99893,0,0,0-8.96045,1.28076A24.00537,24.00537,0,0,0,128,104H64a23.99994,23.99994,0,0,0-24,24h0a23.99994,23.99994,0,0,0,24,24h64a32,32,0,0,0,32,32h24a32,32,0,0,0,32-32h0A32,32,0,0,0,184,120Z" style="fill:#7ab555"/><path d="M167.24,240a23.99978,23.99978,0,0,1-24,24h-8.61011A24.04024,24.04024,0,0,1,136,272a23.59674,23.59674,0,0,1-1.37988,8A23.99852,23.99852,0,0,1,112,296H80a24.00025,24.00025,0,0,1-6.99-46.96A23.99511,23.99511,0,0,1,95.24,216h48a24.002,24.002,0,0,1,24,24Z" style="fill:#7ab555"/><path d="M440,296a15.9958,15.9958,0,0,1-16,16H400a15.9958,15.9958,0,0,1-16-16H368a24,24,0,0,1,0-48h32a23.98,23.98,0,0,1,22.62012,16A23.59674,23.59674,0,0,1,424,272a24.04633,24.04633,0,0,1-1.37012,8H424a15.97876,15.97876,0,0,1,16,16Z" style="fill:#7ab555"/><path d="M240,392l0,0a70.19874,70.19874,0,0,1,66.59637-48h10.80722A70.19874,70.19874,0,0,1,384,392l0,0-17.35,16H256.125Z" style="fill:#7ab555"/><path d="M104.00006,408H471.99994a0,0,0,0,1,0,0v16a64,64,0,0,1-64,64H168.00006a64,64,0,0,1-64-64V408a0,0,0,0,1,0,0Z" style="fill:gray"/><rect x="88.00006" y="392" width="399.99987" height="32" rx="15.99998" ry="15.99998" style="fill:#4d4d4d"/><path d="M472,384H389.53076A78.05911,78.05911,0,0,0,352,344.05884v-2.804a101.83266,101.83266,0,0,1,7.5752-38.38867A31.8952,31.8952,0,0,0,368,304h9.37109A24.04166,24.04166,0,0,0,400,320h24a24.00131,24.00131,0,0,0,7.97168-46.63965Q431.99951,272.68213,432,272a32.03667,32.03667,0,0,0-32-32H368a32.05271,32.05271,0,0,0-30.86719,23.57764,76.64659,76.64659,0,0,0-23.51611,14.72461l-36.36182-36.36182a48.37858,48.37858,0,0,1-4.83105-5.63086A101.28666,101.28666,0,0,1,333.25488,216a72.65836,72.65836,0,0,0,12.44483-1.08154A31.886,31.886,0,0,0,368,224h32a31.88753,31.88753,0,0,0,27.72754-16.001c.09082.001.18164.001.27246.001h40a28,28,0,0,0,0-56h-4.21875A36.50956,36.50956,0,0,0,464,148a36.04061,36.04061,0,0,0-36-36H406.9873A32.05773,32.05773,0,0,0,376,88h-1.02148A31.98164,31.98164,0,0,0,344,48h-10.752A48.07552,48.07552,0,0,0,288,16H240a48.0682,48.0682,0,0,0-47.32056,40H116A36.04061,36.04061,0,0,0,80,92a36.59166,36.59166,0,0,0,.21851,4H64a32,32,0,0,0,0,64h44.68555l-11.916,11.916a67.68842,67.68842,0,0,0-19.65771,42.2749A31.97111,31.97111,0,0,0,64,240a32.34977,32.34977,0,0,0,.26465,4.13672A31.99959,31.99959,0,0,0,80,304h32a32.01462,32.01462,0,0,0,27.80884-16.198c1.68091.12525,3.365.198,5.0437.198h91.834l15.0293,15.03027a68.98887,68.98887,0,0,1,19.83594,41.24585A78.06144,78.06144,0,0,0,234.46924,384H104a23.99667,23.99667,0,0,0-7.67456,46.73413A72.091,72.091,0,0,0,168,496H408a72.09118,72.09118,0,0,0,71.6748-65.26587A23.99671,23.99671,0,0,0,472,384ZM368,256h32a16.01833,16.01833,0,0,1,16,16h-8v16h16a8,8,0,0,1,0,16H400a8.00917,8.00917,0,0,1-8-8,8.00039,8.00039,0,0,0-8-8H368a16,16,0,0,1,0-32ZM296,152h24.24219a35.92865,35.92865,0,0,0,5.855,16H289.94141c-2.561,0-5.10108.12866-7.624.33911a63.971,63.971,0,0,0,9.43555-16.62964A32.07713,32.07713,0,0,0,296,152Zm152-4a20.15394,20.15394,0,0,1-.35547,3.78516L446.30762,152H428a28.00047,28.00047,0,0,0-20.46582,8.88965A31.96722,31.96722,0,0,0,400,160H384v16h16a15.84514,15.84514,0,0,1,6.9668,1.59082,7.99664,7.99664,0,0,0,10.502-3.35059A12.01291,12.01291,0,0,1,428,168h40a12,12,0,0,1,0,24H428a12.07273,12.07273,0,0,1-2.97949-.37109,7.99872,7.99872,0,0,0-9.78321,5.25976A15.94759,15.94759,0,0,1,400,208H368a15.993,15.993,0,0,1-11.59668-27.01367,8.00208,8.00208,0,0,0-4.36816-13.37793A20.00294,20.00294,0,0,1,356,128h72A20.02229,20.02229,0,0,1,448,148Zm-58.165-36H356a36.05658,36.05658,0,0,0-33.93555,24H296a16,16,0,0,1,0-32h80A15.99594,15.99594,0,0,1,389.835,112ZM240,32h48a32.03667,32.03667,0,0,1,32,32,32.37306,32.37306,0,0,1-.63965,6.40918L335.04,73.59082A48.34187,48.34187,0,0,0,336,64h8a15.98408,15.98408,0,0,1,13.84473,24H296a31.85968,31.85968,0,0,0-21.13184,8h-27.0957A35.96086,35.96086,0,0,0,212,56h-2.9873A32.05794,32.05794,0,0,1,240,32ZM222.21875,140.18921a39.918,39.918,0,0,0-6.40137-12.39356,35.718,35.718,0,0,0,13.84473-4.44433A63.18219,63.18219,0,0,1,222.21875,140.18921ZM174.9873,232A32.05794,32.05794,0,0,0,144,208H126.60742a21.92849,21.92849,0,0,1,2.1875-7.70117l7.90625-15.813A39.77131,39.77131,0,0,0,160,192h24a40.01083,40.01083,0,0,0,7.606-.73438A80.6476,80.6476,0,0,0,193.5083,232ZM96,92a20.02229,20.02229,0,0,1,20-20h96a20,20,0,0,1,0,40H155.699A32.19923,32.19923,0,0,0,128,96H96.40356A20.13668,20.13668,0,0,1,96,92ZM48,128a16.01833,16.01833,0,0,1,16-16h64a16.08382,16.08382,0,0,1,15.2666,11.18945,8.00127,8.00127,0,0,0,10.00781,5.77344A24.03947,24.03947,0,0,1,160,128h24a24,24,0,0,1,0,48H160a24.0275,24.0275,0,0,1-24-24,8.00039,8.00039,0,0,0-8-8H64A16.01833,16.01833,0,0,1,48,128Zm60.084,55.23047,15.25171-15.25171a39.91089,39.91089,0,0,0,1.87012,3.72192l-10.72143,21.44287A38.02487,38.02487,0,0,0,110.55322,208H96c-.58887,0-1.17358.01855-1.75488.05029A51.77206,51.77206,0,0,1,108.084,183.23047ZM112,288H80a16.00018,16.00018,0,0,1-4.21-31.43652A8.00277,8.00277,0,0,0,81.043,245.70117,16.016,16.016,0,0,1,96,224h48a16,16,0,0,1,0,32h-9.23242c-.04517-.00073-.0896.00488-.13477.00488V256H112v16h16A16.01833,16.01833,0,0,1,112,288Zm151.03027,3.71582-17.373-17.37305A8.00235,8.00235,0,0,0,240,272H144.85254c-.15552,0-.31152-.0083-.467-.00977A32.055,32.055,0,0,0,174.9873,248H232V232H210.50293a64.31793,64.31793,0,0,1,1.54272-51.5144,40.10671,40.10671,0,0,0,9.34473-14.29517c1.02173-1.18018,2.07422-2.34131,3.179-3.44531A79.39291,79.39291,0,0,0,247.76855,112H265.0127a31.99445,31.99445,0,0,0,11.90478,33.6709,47.962,47.962,0,0,1-10.97705,17.07422,64.21554,64.21554,0,0,0-9.16309,11.56494,89.72461,89.72461,0,0,0-30.43457,20.03271l11.31446,11.31446A73.45409,73.45409,0,0,1,289.94141,184h47.06836a32.112,32.112,0,0,0-.02832,15.86792c-1.24024.082-2.48291.13208-3.72657.13208a117.296,117.296,0,0,0-76.6123,28.48828,8.00244,8.00244,0,0,0-1.81543,9.85156,64.08887,64.08887,0,0,0,11.11328,14.915l37.02832,37.02857a75.35215,75.35215,0,0,0-6.124,10.13843l14.31054,7.15624A60.67739,60.67739,0,0,1,337.314,281.05859a32.03192,32.03192,0,0,0,8.27979,13.759,118.038,118.038,0,0,0-9.54932,43.426A78.40276,78.40276,0,0,0,317.40332,336H306.59668a78.3515,78.3515,0,0,0-19.68555,2.51807A84.93166,84.93166,0,0,0,263.03027,291.71582ZM306.59668,352h10.80664a62.10617,62.10617,0,0,1,54.37256,32h-119.552A62.10684,62.10684,0,0,1,306.59668,352ZM408,480H168a56.07868,56.07868,0,0,1-55.41943-48H463.41943A56.07868,56.07868,0,0,1,408,480Zm64-64H104a8,8,0,0,1,0-16H472a8,8,0,0,1,0,16Z"/></g></svg>
