<svg id="Capa_1" enable-background="new 0 0 497 497" height="512" viewBox="0 0 497 497" width="512" xmlns="http://www.w3.org/2000/svg"><path d="m0 246.646v-68.425l26.137-53.784 95.773-42.749 126.59-22.392 127.521 18.999 97.279 50.213 23.7 49.713v68.425h-31.164l-48.084-38.069-60.97-33.249-108.282-18.321-110.883 21.214-70.425 39.855-29.52 28.57z" fill="#fab659"/><path d="m497 116.426v61.795c-68.9-60.125-156.176-92.955-248.5-92.955s-179.599 32.83-248.5 92.955v-61.795c70.007-50.166 155.808-79.695 248.5-79.695s178.493 29.529 248.5 79.695z" fill="#ff71a7"/><path d="m83.762 299.103c-.398.408-.806.835-1.204 1.243l-32.684 20.531-37.984-9.708 25.781-64.523 29.52-28.57 70.425-39.855 110.884-21.214 108.282 18.321 60.97 33.249 48.084 38.069 17.186 61.348-27.703 18.65-33.606-18.601c-2.737-3.038-5.562-6.028-8.474-8.94l-42.012-6.725-63.152-30.195-55.938-9.5-57.379 12.214-57.14 23.749z" fill="#5bd6fd"/><path d="m354.695 284.473 16.531 7.904 42.012 6.726c2.912 2.912 5.737 5.902 8.474 8.94l33.606 18.601 27.703-18.649-8.516-30.399c-6.06-.207-13.066-.349-20.89-.349-26.219-.001-60.53 1.574-98.92 7.226z" fill="#00b4fb"/><path d="m160.671 279.063c-22.325-5.179-47.436-8.742-74.297-8.742-20.686 0-40.989 2.134-60.699 6.352l-13.783 34.495 37.984 9.708 32.684-20.531c.398-.408.806-.834 1.204-1.242l53.855-10.458z" fill="#00b4fb"/><path d="m82.558 300.345c.398-.408.806-.835 1.204-1.243 44.002-44.002 102.506-68.24 164.738-68.24s120.736 24.238 164.738 68.24c2.912 2.912 5.737 5.902 8.474 8.94l-27.915 22.899-37.015-16.443c-31.286-22.782-68.833-35.101-108.282-35.101-35.217 0-68.91 9.814-97.992 28.121l-39.1 16.524z" fill="#817cd0"/><path d="m496.489 308.95-8.713 10.343-4.754-11.299c-10.26-15.376-22.103-29.849-35.469-43.216-53.165-53.165-123.862-82.442-199.052-82.442s-145.887 29.276-199.052 82.442c-14.279 14.289-26.821 29.83-37.557 46.39v.01l-5.093 10.801-6.799-6.869v-68.464c4.844-5.533 9.882-10.93 15.124-16.182 62.339-62.339 145.217-96.663 233.376-96.663s171.038 34.324 233.376 96.663c5.242 5.251 10.28 10.649 15.124 16.182v62.358" fill="#f8e86a"/><path d="m496.489 308.951.511.053v-30.129c-5.762-.493-19.041-1.437-37.708-1.603 8.658 9.761 16.586 20.017 23.73 30.723l4.754 11.298z" fill="#fab659"/><path d="m356.782 314.498 37.015 16.443 27.915-22.898c-2.737-3.038-5.562-6.028-8.474-8.94-6.826-6.826-14.002-13.174-21.485-19.032-23.614 2.145-49.661 5.747-76.952 11.569 14.867 5.722 28.967 13.381 41.981 22.858z" fill="#635ac5"/><path d="m150.508 307.519c13.167-8.289 27.28-14.829 42.05-19.513-21.625-7.125-47.468-13.451-76.035-16.211-11.605 8.012-22.576 17.123-32.761 27.309-.398.408-.806.834-1.204 1.242l28.849 23.698z" fill="#635ac5"/><path d="m11.891 311.178v-.01c8.5-13.111 18.15-25.571 28.88-37.289-13.874 2.189-27.488 5.386-40.772 9.585v31.645l6.798 6.869z" fill="#fab659"/><path d="m243.82 343.526s-117.284-73.88-243.82-28.417v145.16h78.385z" fill="#80dfb5"/><path d="m78.385 460.268 165.435-116.742s-13.294-8.367-35.736-17.735c-62.283 27.64-113.632 66.402-153.119 115.729l-15.009 18.749h38.429z" fill="#36d39a"/><path d="m497 309.002s-274.084-29.276-418.615 151.267h418.615z" fill="#80dfb5"/><ellipse cx="262.892" cy="411.566" fill="#ffa0ab" rx="29.308" ry="23.339"/><ellipse cx="421.751" cy="411.566" fill="#ffa0ab" rx="29.308" ry="23.339"/><g fill="#423e4f"><path d="m279.973 396.311c-4.142 0-7.5-3.358-7.5-7.5v-11.406c0-4.142 3.358-7.5 7.5-7.5s7.5 3.358 7.5 7.5v11.406c0 4.143-3.358 7.5-7.5 7.5z"/><path d="m342.322 403.731c-8.467 0-16.52-3.667-22.092-10.061-2.721-3.123-2.396-7.86.727-10.582 3.123-2.721 7.86-2.396 10.582.727 2.723 3.125 6.653 4.916 10.784 4.916s8.061-1.792 10.784-4.916c2.721-3.123 7.458-3.448 10.582-.727 3.123 2.721 3.448 7.459.727 10.582-5.574 6.394-13.626 10.061-22.094 10.061z"/><path d="m420.091 395.993c-4.142 0-7.5-3.358-7.5-7.5 0-3.153-2.565-5.718-5.718-5.718s-5.718 2.565-5.718 5.718c0 4.142-3.358 7.5-7.5 7.5s-7.5-3.358-7.5-7.5c0-11.424 9.294-20.718 20.718-20.718s20.718 9.294 20.718 20.718c0 4.143-3.358 7.5-7.5 7.5z"/></g></svg>