<svg id="Capa_1" enable-background="new 0 0 512 512" height="512" viewBox="0 0 512 512" width="512" xmlns="http://www.w3.org/2000/svg"><path d="m285.427 310.759c3.26-17.969 8.483-35.521 15.665-52.5 12.607-29.809 30.644-56.567 53.608-79.531s49.722-41.001 79.531-53.609c24.859-10.514 50.941-16.849 77.769-18.927v-58.796c-34.729 2.174-68.495 10.099-100.619 23.685-36.801 15.566-69.829 37.826-98.165 66.162-28.337 28.337-50.597 61.365-66.162 98.165-10.268 24.276-17.301 49.491-21.07 75.35h59.443z" fill="#ad77e3"/><path d="m228.942 310.759c3.746-25.468 10.692-50.296 20.802-74.198 15.415-36.447 37.468-69.164 65.547-97.243 28.078-28.078 60.795-50.131 97.242-65.548 31.745-13.426 65.123-21.268 99.467-23.436v-50.093c-41.076 2.227-81.003 11.432-118.945 27.479-42.407 17.937-80.467 43.588-113.12 76.242-32.654 32.655-58.306 70.714-76.242 113.121-12.737 30.114-21.169 61.478-25.222 93.676z" fill="#fed843"/><path d="m330.613 310.759c19.17-85.829 92.05-151.622 181.387-160.123v-50.198c-60.969 4.601-117.666 30.549-161.354 74.235-37.586 37.587-62.037 84.804-71.066 136.086z" fill="#e0376f"/><path d="m370.095 340.846h-2.003c-6.575-32.6-34.144-57.69-67.94-60.496-3.136-20.355-12.715-39.207-27.744-54.18-18.591-18.521-43.119-28.721-69.065-28.721-52.926 0-96.262 41.849-98.658 94.193-58.207 2.846-104.685 51.094-104.685 109.993 0 60.723 49.401 110.124 110.124 110.124h260.854c22.946 0 44.486-8.969 60.651-25.255 16.165-16.284 24.974-37.894 24.804-60.847-.347-46.765-39.078-84.811-86.338-84.811z" fill="#9ef3ea"/><path d="m370.095 340.846h-2.003c-6.575-32.6-34.144-57.69-67.94-60.496-3.136-20.355-12.715-39.207-27.744-54.18-17.482-17.416-40.215-27.472-64.439-28.61v314.198h163.011c22.946 0 44.486-8.969 60.651-25.255 16.165-16.284 24.974-37.894 24.804-60.847-.349-46.764-39.08-84.81-86.34-84.81z" fill="#55d5d2"/></svg>